<svg xmlns="http://www.w3.org/2000/svg" height="800" width="1200" viewBox="-4.328595 -3.5899 37.51449 21.5394"><path d="M18.5223 0l4.2524 6.5793S19.363 6.12 18.3695 4.2587C17.3761 2.3971 18.5223 0 18.5223 0" fill="#427ac6"/><path d="M21.7656.237l1.009 6.3423s-2.406-1.4746-2.5344-3.1993c-.128-1.7251 1.5254-3.143 1.5254-3.143" fill="#427ac6"/><path d="M20.2402 3.3798c.1285 1.7248 2.5344 3.1994 2.5344 3.1994L20.2759 2.713a2.6964 2.6964 0 00-.0357.6667" fill="#205291"/><path d="M0 5.3205h3.2688v.9899H1.1324v1.1109h1.8373v.9401H1.1324v2.1153H0zm3.701 1.6522h1.061v.4699l.0142.0074c.2423-.3422.5842-.52 1.0184-.52.0713 0 .1496.007.228.0282v1.0185a1.2712 1.2712 0 00-.2922-.0357c-.3771 0-.6907.1143-.9468.4131v2.1223H3.701zm5.123 1.3531c-.0641-.3775-.3418-.6054-.6907-.6054-.3348 0-.6269.2067-.7193.6054zm-1.403.6837c.121.4843.52.7052 1.0185.7052.3916 0 .8188-.1355 1.1893-.385v.9046c-.3419.2138-.869.3207-1.3318.3207-1.1536 0-1.9868-.7193-1.9868-1.8161 0-1.118.8689-1.8447 1.8372-1.8447.8619 0 1.6736.5697 1.6736 1.7448 0 .1214-.007.278-.0211.3705zm5.3989-.6837c-.0642-.3775-.3419-.6054-.6908-.6054-.3347 0-.6268.2067-.7193.6054zm-1.403.6837c.121.4843.52.7052 1.0185.7052.3915 0 .8188-.1355 1.1892-.385v.9046c-.3419.2138-.869.3207-1.3318.3207-1.1536 0-1.9868-.7193-1.9868-1.8161 0-1.118.8689-1.8447 1.8373-1.8447.8618 0 1.6735.5697 1.6735 1.7448 0 .1214-.007.278-.0211.3705zm5.4259-1.0825c-.1567-.0783-.349-.1355-.5627-.1355-.5697 0-.876.4276-.876.9546 0 .5197.2992.9257.8333.9257.235 0 .4487-.0783.6054-.1781zm.007 2.3573c-.235.1636-.5482.2705-.89.2705-.883 0-1.645-.6837-1.645-1.759 0-1.1038.8047-1.9014 1.8514-1.9014.2635 0 .4773.0498.6625.128l.014-.007V5.0356h1.0828v5.441h-1.0612v-.1853zm3.6762-.6623c.4914 0 .8688-.399.8688-.8976 0-.4984-.3774-.897-.8688-.897-.4915 0-.869.3986-.869.897 0 .4985.3775.8975.869.8975m0-2.7277c1.1183 0 1.9515.7977 1.9515 1.8302 0 1.0326-.8332 1.8306-1.9515 1.8306-1.118 0-1.9513-.798-1.9513-1.8306 0-1.0325.8333-1.8302 1.9513-1.8302m7.1338 1.5598c0-.2635-.0427-.3845-.128-.4773-.0999-.1069-.228-.1496-.3704-.1496-.2495 0-.5056.1284-.6908.2921.007.0498.007.107.007.1566v2.2007H25.395V8.454c0-.235-.0353-.3775-.128-.4773-.0995-.1069-.228-.1496-.3705-.1496-.249 0-.5055.1355-.6837.285v2.3644h-1.0823V6.9727h1.0682v.3133l.0141.007c.271-.2279.627-.3986 1.0541-.3986.3775 0 .8118.1495 1.0185.4984.3775-.3347.7906-.4984 1.232-.4984.3918 0 .698.135.9044.3489.2209.2279.3207.534.3207 1.0325v2.2007h-1.0827z" fill="#ee6b1e"/><path d="M18.0372 13.0891c0-.159-.0261-.2325-.0776-.2882-.0604-.065-.1376-.0903-.224-.0903-.1507 0-.3059.0769-.4177.176a.712.712 0 01.0042.095v1.3306h-.6548v-1.223c0-.1422-.0211-.2283-.0772-.2883-.0603-.065-.138-.0903-.224-.0903-.1507 0-.3055.0811-.4138.1718v1.4298h-.654v-2.1188h.6459v.1895l.008.0042c.1641-.1376.3793-.241.6379-.241.2282 0 .4907.0904.6156.3013.2282-.2025.4784-.3013.7454-.3013.2364 0 .422.0819.5468.211.1334.138.1937.3232.1937.6244v1.3307h-.6544zm2.2368.7063c.2971 0 .5254-.2413.5254-.5426 0-.3016-.2283-.5422-.5253-.5422s-.5253.2406-.5253.5422c0 .3013.2282.5426.5253.5426m0-1.6493c.6762 0 1.18.4823 1.18 1.1067 0 .6244-.5038 1.1067-1.18 1.1067-.6763 0-1.18-.4823-1.18-1.1067 0-.6244.5037-1.1067 1.18-1.1067m2.5813 1.6836c.3531 0 .534-.2755.534-.5856 0-.31-.1851-.551-.508-.551-.142 0-.267.0476-.3619.1034v.9514c.0861.0476.2156.0818.3359.0818m-.9903-2.8077h.6544v1.2661l.0089.0042c.1287-.086.3185-.1464.521-.1464.5253 0 .999.4093.999 1.0682 0 .6717-.4864 1.1455-1.1457 1.1455-.2064 0-.3786-.0473-.5253-.1076l-.5123.086zm2.6069 1.1714h.6545v2.1188h-.6544zm.3271-1.0463c.2071 0 .3793.1675.3793.3746 0 .2064-.1722.3743-.3793.3743-.2064 0-.3789-.1679-.3789-.3743 0-.207.1725-.3746.379-.3746m.8706-.1253h.6544v3.2904h-.6544zm2.5842 1.9898c-.0384-.2282-.2063-.3662-.4176-.3662-.2025 0-.3789.1253-.435.3662zm-.8483.4135c.0733.2928.3143.4265.6159.4265.237 0 .4953-.0822.7193-.2332v.5471c-.2067.1295-.5253.194-.8057.194-.6975 0-1.2012-.4353-1.2012-1.0978 0-.6766.5252-1.1158 1.1112-1.1158.521 0 1.0121.3447 1.0121 1.0555 0 .073-.0046.1676-.013.2237z" fill="#205291"/></svg>